<?xml version="1.0" standalone="no"?>
<!DOCTYPE svg PUBLIC "-//W3C//DTD SVG 20010904//EN"
 "http://www.w3.org/TR/2001/REC-SVG-20010904/DTD/svg10.dtd">
<svg version="1.0" xmlns="http://www.w3.org/2000/svg"
 width="451.000000pt" height="451.000000pt" viewBox="0 0 451.000000 451.000000"
 preserveAspectRatio="xMidYMid meet">

<g transform="translate(0.000000,451.000000) scale(0.100000,-0.100000)"
fill="#000000" stroke="none">
<path d="M0 4462 l0 -47 225 0 c124 0 225 3 225 8 0 4 -12 25 -26 47 l-27 40
-198 0 -199 0 0 -48z"/>
<path d="M57 4213 l-57 -70 0 -217 c0 -139 4 -216 10 -216 6 0 25 23 42 52 18
28 34 46 36 40 7 -22 -38 -150 -64 -181 -15 -18 -24 -40 -22 -53 3 -22 7 -23
122 -26 82 -2 122 1 126 9 12 19 -1 48 -31 70 -16 11 -40 39 -54 62 -30 53
-57 127 -45 127 4 0 25 -22 44 -49 33 -44 41 -50 85 -56 132 -18 210 67 166
182 -10 25 -43 75 -74 112 -31 36 -77 95 -103 131 -25 36 -63 85 -85 109 l-39
44 -57 -70z"/>
<path d="M2178 3987 c-31 -40 -320 -525 -609 -1022 -277 -475 -584 -995 -704
-1190 -123 -202 -185 -306 -185 -311 0 -2 -18 -33 -40 -69 -22 -36 -40 -72
-40 -80 0 -13 41 -15 288 -17 158 -2 348 -2 422 -2 74 1 674 2 1333 3 659 0
1196 4 1194 9 -37 65 -164 274 -247 407 -93 148 -197 321 -380 630 -26 44 -68
116 -92 160 -25 44 -104 177 -175 295 -71 118 -180 303 -242 410 -169 292
-247 424 -321 540 -37 58 -88 140 -114 183 -27 42 -52 79 -56 82 -4 3 -19 -10
-32 -28z m145 -461 c30 -46 83 -134 117 -197 76 -138 187 -329 247 -423 23
-38 43 -75 43 -83 0 -7 -37 13 -82 44 -112 76 -193 112 -293 131 l-85 16 0
101 c0 56 -3 190 -7 298 -3 109 -3 197 0 197 3 0 30 -38 60 -84z m-192 -236
l1 -285 -46 -7 c-130 -18 -265 -85 -375 -185 -34 -30 -65 -52 -69 -49 -8 9 72
161 146 276 30 47 64 105 75 130 11 25 29 59 42 75 12 17 31 48 43 70 31 61
172 268 178 262 2 -1 4 -131 5 -287z m6 -677 l-6 -248 -261 -3 c-246 -2 -261
-1 -256 15 3 10 10 43 16 73 12 66 92 193 157 250 51 44 184 116 263 141 101
33 93 54 87 -228z m228 233 c128 -34 259 -131 337 -250 36 -56 95 -213 83
-224 -3 -3 -120 -7 -260 -10 l-255 -5 0 252 0 251 23 0 c12 0 45 -6 72 -14z
m-885 -363 c0 -10 -3 -42 -6 -70 l-7 -53 -38 0 c-22 0 -39 3 -39 7 0 12 75
133 83 133 4 0 7 -8 7 -17z m1518 -76 c28 -43 21 -57 -29 -57 -24 0 -26 5 -37
64 -7 35 -12 70 -12 77 1 15 36 -23 78 -84z m-868 -204 c0 -16 3 -151 6 -302
l6 -273 -34 7 c-207 45 -341 139 -432 308 -47 87 -60 128 -71 219 l-6 57 73 4
c40 1 160 4 266 5 l192 2 0 -27z m618 21 l61 -7 -5 -31 c-23 -138 -65 -251
-119 -322 -93 -122 -233 -209 -367 -228 l-48 -7 0 295 0 295 53 4 c97 6 364 7
425 1z m404 -106 c30 -51 83 -140 118 -198 130 -214 168 -277 218 -363 29 -49
52 -90 52 -92 0 -2 -249 -2 -552 0 -506 3 -639 10 -588 29 8 3 45 16 83 30 37
14 89 40 115 57 68 47 197 180 222 230 12 24 34 59 48 78 27 36 68 158 78 231
6 45 7 46 63 67 31 11 63 21 72 22 11 1 36 -31 71 -91z m-1792 67 c107 -17 97
-9 104 -73 9 -80 38 -166 87 -263 76 -153 232 -281 409 -336 l85 -27 -40 -9
c-22 -4 -286 -11 -588 -14 l-547 -5 9 23 c24 63 64 140 105 204 25 39 55 89
66 112 10 24 37 69 58 100 56 83 133 202 165 257 21 37 32 46 45 41 9 -3 28
-8 42 -10z"/>
<path d="M606 798 c-3 -13 -6 -38 -6 -55 l0 -33 84 0 83 0 7 -37 c3 -21 6
-129 6 -240 l0 -203 50 0 50 0 2 218 c1 119 2 228 2 242 1 24 4 25 76 30 l75
5 0 40 0 40 -100 6 c-55 4 -150 7 -211 8 -108 1 -112 0 -118 -21z"/>
<path d="M2453 608 c4 -116 7 -246 7 -288 l0 -76 50 0 50 0 0 288 0 288 -57 0
-56 0 6 -212z"/>
<path d="M2746 728 c-8 -117 -8 -381 0 -442 l7 -46 43 0 44 0 0 115 c0 85 3
115 13 115 14 -1 94 -89 155 -172 l43 -58 59 0 c33 0 60 4 60 9 0 11 -110 158
-178 240 l-46 53 24 45 c13 24 54 77 92 116 38 40 76 80 85 90 15 16 13 17
-48 17 l-64 -1 -50 -65 c-27 -35 -72 -86 -99 -112 l-48 -47 6 118 6 117 -48 0
-49 0 -7 -92z"/>
<path d="M1199 783 c0 -16 0 -138 0 -273 1 -135 1 -255 1 -268 0 -21 4 -23 42
-20 51 4 56 15 57 136 1 80 2 82 25 82 19 0 41 -20 93 -87 116 -148 101 -135
160 -127 l52 6 -16 31 c-9 18 -44 67 -79 110 -63 77 -74 97 -54 97 20 0 79 62
94 100 32 79 -15 173 -108 216 -44 20 -66 24 -158 24 l-108 0 -1 -27z m244
-102 c72 -62 31 -127 -84 -133 l-54 -3 -3 69 c-2 38 -1 74 2 81 6 17 116 7
139 -14z"/>
<path d="M1930 795 c-54 -17 -150 -100 -185 -158 -56 -97 -42 -186 43 -279 74
-79 127 -109 205 -115 93 -8 140 9 210 75 84 81 112 132 112 207 -1 104 -56
189 -161 251 -56 33 -155 42 -224 19z m196 -126 c116 -79 109 -225 -14 -292
-59 -32 -110 -34 -167 -8 -67 30 -121 113 -110 168 2 10 6 30 9 45 8 36 53 88
91 104 16 7 56 13 88 14 49 0 65 -5 103 -31z"/>
<path d="M3469 743 c-17 -38 -46 -102 -64 -143 -19 -41 -65 -135 -104 -209
-39 -73 -71 -135 -71 -138 0 -2 26 -3 58 -1 l57 3 40 82 c22 45 48 90 57 100
9 10 26 44 38 76 12 31 24 57 28 57 4 0 43 -75 87 -165 l79 -165 58 0 c36 0
58 4 58 11 0 6 -38 84 -84 173 -46 88 -105 212 -131 274 -28 67 -53 112 -61
112 -8 0 -28 -30 -45 -67z"/>
</g>
</svg>
